<?xml version="1.0" encoding="utf-8"?>
<!-- Generator: Adobe Illustrator 28.1.0, SVG Export Plug-In . SVG Version: 6.00 Build 0)  -->
<svg version="1.1" id="Capa_1" xmlns="http://www.w3.org/2000/svg" xmlns:xlink="http://www.w3.org/1999/xlink" x="0px" y="0px"
	 viewBox="0 0 800 800" style="enable-background:new 0 0 800 800;" xml:space="preserve">
<style type="text/css">
	.st0{display:none;}
	.st1{display:inline;}
	.st2{fill:#FE375D;}
</style>
<g class="st0">
	<path d="M208.8,519.2c-11.4-9-25.8-14-40.4-14c-19.8,0-38.3,8.8-50.7,24.2c-10.8,13.4-15.7,30.3-13.8,47.4
		c1.9,17.1,10.5,32.5,24.1,43.2c11.4,9,25.8,14,40.3,14c19.8,0,38.3-8.8,50.7-24.2c10.8-13.4,15.7-30.2,13.8-47.3
		C230.9,545.3,222.4,529.9,208.8,519.2z M196,591.2c-6.7,8.4-16.8,13.2-27.6,13.2c-8.1,0-15.7-2.6-22-7.6c-7.4-5.8-12-14.1-13-23.4
		c-1-9.2,1.6-18.3,7.4-25.5c6.7-8.4,16.8-13.2,27.6-13.2c8.1,0,15.7,2.6,22,7.6c7.4,5.8,12,14.1,13,23.4
		C204.5,574.9,201.9,584,196,591.2z"/>
	<path d="M468.4,367.9c9.7,0,19.2-2.1,28-6.4c15.7-7.5,27.4-20.6,33.1-36.9c5.7-16.2,4.6-33.6-2.9-49.1
		c-10.7-22.1-33.7-36.4-58.4-36.4c-9.8,0-19.2,2.1-28.1,6.4c-15.7,7.5-27.4,20.6-33.1,36.9c-5.7,16.2-4.7,33.7,2.9,49.1
		C420.7,353.6,443.7,367.9,468.4,367.9z M435,292.1c3.1-8.8,9.5-15.9,18-20c4.9-2.3,10-3.5,15.3-3.5c13.5,0,26,7.8,31.9,19.8
		c4,8.3,4.6,17.7,1.6,26.4c-3.1,8.8-9.5,15.9-18,20c-4.8,2.3-10,3.5-15.3,3.5c-13.5,0-26.1-7.8-31.9-19.8
		C432.5,310.2,431.9,300.9,435,292.1z"/>
	<path d="M307.7,263.6c4.8,1.1,9.6,1.6,14.4,1.6c30.4,0,56.4-20.6,63.2-50c3.8-16.7,0.9-33.9-8.3-48.4
		c-9.2-14.6-23.6-24.8-40.6-28.7c-4.8-1.1-9.7-1.6-14.5-1.6c-30.4,0-56.3,20.6-63.1,50c-3.8,16.7-0.9,33.9,8.2,48.4
		C276.4,249.6,290.8,259.7,307.7,263.6z M287.7,193.1c3.7-16,17.8-27.1,34.3-27.1c2.7,0,5.3,0.3,8,0.9c9.2,2.1,17.1,7.6,22.1,15.6
		c4.9,7.8,6.5,17.1,4.5,26.1c-3.6,15.7-18.1,27.1-34.4,27.1c-2.6,0-5.3-0.3-7.9-0.9c-9.2-2.1-17.1-7.6-22.1-15.6
		C287.2,211.3,285.6,202.1,287.7,193.1z"/>
	<path d="M190.4,300.4c13.6-10.8,22.1-26.1,24-43.3c1.9-17.1-3-33.9-13.8-47.3c-12.4-15.4-30.9-24.2-50.7-24.2
		c-14.6,0-28.9,5-40.3,14c-13.6,10.7-22.1,26.1-24,43.2c-1.9,17.1,3,33.9,13.8,47.4c12.4,15.4,30.9,24.2,50.7,24.2
		C164.7,314.4,179,309.4,190.4,300.4z M122.4,271.7c-5.8-7.3-8.5-16.4-7.5-25.6c1-9.2,5.7-17.5,13-23.3c6.3-5,13.9-7.6,22-7.6
		c10.8,0,20.9,4.8,27.7,13.1c5.8,7.3,8.5,16.3,7.4,25.5c-1,9.3-5.7,17.6-13,23.4c-6.3,5-13.9,7.6-22,7.6
		C139.2,284.9,129.1,280.1,122.4,271.7z"/>
	<path class="st1" d="M794.4,155.9c-2.6-2.6-7.1-5.6-14.3-5.6c-8.4,0-30.8,0-166.7,115.7c-2.7,2.3-5.5,4.7-8.3,7.1
		c-24.3-63.3-67-119.8-121.9-160.7c-63-46.8-138.1-71.6-217.1-71.6c0,0,0,0-0.1,0c-53.3,0-118.1,18.6-169.1,48.6
		C34.4,126,0,175.1,0,227.6c0,63.4,35.8,89.9,64.5,111.2c23.4,17.4,41.9,31.1,41.9,61.1c0,30.1-18.5,43.8-41.9,61.1
		C35.8,482.4,0.1,508.9,0.1,572.2c0,52.5,34.5,101.6,97,138.4c51,30,115.9,48.7,169.2,48.7c0,0,0.1,0,0.1,0
		c96.7,0,187.7-37.3,256.1-105.1C590,587.3,627.5,498.6,628.5,404c22.9-26.1,45.1-52,65.4-76.5c34.7-41.8,61.4-76.3,79.3-102.5
		C796.9,190.3,807.3,169,794.4,155.9z M501.6,633.2c-62.8,62.3-146.4,96.6-235.3,96.6c0,0-0.1,0-0.1,0
		c-95.3,0-236.6-66.2-236.6-157.6c0-48.5,25.5-67.4,52.5-87.4c25.2-18.7,53.8-39.9,53.8-84.8c0-44.9-28.6-66.1-53.9-84.9
		c-27-20-52.5-39-52.5-87.5c0-56.1,51.6-94.8,82.4-112.9c46-27.1,106.5-44.5,154.1-44.5c0,0,0,0,0.1,0c72.6,0,141.6,22.8,199.5,65.8
		c53.4,39.7,94.2,95.4,115.7,157.6C517.1,349.5,447.8,414,396.1,465.9c-85.8,11.1-97.5,68.3-106,110.3c-7.3,35.8-12,53.1-39.6,55.3
		c-6.8,0.5-12.3,5.7-13.4,12.4c-1.1,6.7,2.6,13.3,8.9,15.9c1.8,0.7,44,18,93.3,18c0,0,0,0,0,0c34.4,0,63.9-8.3,87.6-24.8
		c29.3-20.3,49.2-52.4,59.2-95.4c33.8-34.1,72.3-75.3,110.5-117.7C587.9,512.9,554.9,580.4,501.6,633.2z M456.5,554.8
		c-15.6,62-55,93.4-117.1,93.4c0,0,0,0,0,0c-16.4,0-32.1-2.2-45.3-5c15.8-16.1,20.7-40.2,24.9-61.2c8.1-39.9,15.8-77.6,78.6-86.6
		L456.5,554.8z M660.4,321.6C601.9,391.3,531,469.6,472.7,529.2l-9-9.1l-39.8-40.2c52.9-52.6,120.7-115.4,184-170.4l0,0
		c7.4-6.4,14.7-12.7,21.9-18.9c73.5-62.7,112-89.9,131.6-101.8C749.7,208.6,722.7,247.4,660.4,321.6z"/>
</g>
<g>
	<g>
		<path class="st2" d="M696,292.4c3.9,14.7,7.2,29.5,9.9,44.5c1.1,6.2,2.1,12.4,3,18.6c0.9,6.1-0.8-6.6-0.1-0.5
			c0.2,1.6,0.4,3.3,0.6,4.9c0.4,3.8,0.8,7.6,1.2,11.4c2.2,24.5,2.3,49.2-0.3,73.6c-0.2,2.3-0.5,4.6-0.8,7c-0.2,2-1.3,7.2,0.2-1.7
			c-0.2,1.4-0.4,2.7-0.6,4.1c-0.9,5.8-1.9,11.6-3.1,17.3c-2.1,10.2-4.8,20.4-7.9,30.4c-1.5,4.9-3.2,9.7-4.9,14.4
			c-0.9,2.4-1.8,4.7-2.7,7c-0.9,2.3-4.6,10.6-0.6,1.6c-4.1,9.3-8.4,18.6-13.3,27.5c-9.1,16.8-19.6,32.6-31.1,47.8
			c-2.9,3.8,4.3-5.5,1.4-1.8c-0.7,0.9-1.4,1.8-2.2,2.8c-1.5,1.8-2.9,3.6-4.4,5.5c-3,3.6-6,7.1-9,10.7c-6.3,7.2-12.8,14.3-19.6,21.1
			c-6.8,6.8-13.9,13.2-21.2,19.4c-3.8,3.2-7.7,6.3-11.6,9.4c7.4-6,1.2-0.9-0.6,0.4c-2.4,1.8-4.8,3.6-7.3,5.3
			c-18,12.8-37,24-56.9,33.5c-4.7,2.2-9.4,4.3-14.1,6.4c-5,2.2,6.2-2.5,1.2-0.5c-1.3,0.5-2.6,1.1-4,1.6c-3.1,1.2-6.3,2.4-9.4,3.6
			c-11,4-22.3,7.6-33.6,10.5c-12.2,3.2-24.7,5.7-37.2,7.6c-1,0.2-2.1,0.3-3.1,0.4c8.4-1.6,3-0.4,1-0.2c-3.1,0.4-6.2,0.7-9.3,1
			c-6.9,0.7-13.7,1.1-20.6,1.4c-13.1,0.5-26.3,0.2-39.3-0.7c-6.7-0.5-13.6-2-20.3-2.1c7.6,0,2.4,0.3,0.3,0c-1.7-0.3-3.4-0.5-5.2-0.8
			c-3.5-0.6-6.9-1.2-10.4-1.8c-14.9-2.9-29.7-6.6-44.2-11.1c-6.6-2.1-13.2-4.3-19.7-6.7c-3.1-1.1-6.2-2.3-9.3-3.6
			c-1.5-0.6-3-1.2-4.5-1.8c-2.7-1.1-2-0.8,2,0.9c-1-0.4-1.9-0.8-2.9-1.3c-10.9-4.8-21.5-10.1-31.7-16.1c-4.7-2.7-9.3-5.6-13.8-8.6
			c-2.2-1.5-4.3-2.9-6.4-4.5c-1.9-1.4-9.2-7.2-1.6-1.1c-7.7-6.2-15.1-12.6-22-19.7c-2.8-2.9-5.5-5.9-8.1-9c-1.6-1.9-6.5-8.6-0.4-0.3
			c-1.4-1.9-2.9-3.9-4.3-5.8c-4.5-6.4-8.5-13.2-11.9-20.3c-0.8-1.7-1.6-3.4-2.4-5.1c-1.8-3.9,2.8,7,1.3,3c-0.3-0.9-0.7-1.7-1-2.6
			c-1.3-3.5-2.6-7-3.6-10.6c-0.9-3.2-1.8-6.4-2.5-9.7c-0.4-1.7-0.7-3.3-1-5c-0.1-0.8-0.3-1.7-0.4-2.5c-0.9-5.6,0.8,7.1,0.4,3
			c-0.7-6.5-1.1-12.9-0.9-19.4c0.1-3.1,0.3-6.2,0.6-9.4c0.1-0.8,0.2-1.5,0.3-2.3c0.4-4-1.2,8.1-0.6,4.1c0.2-1.5,0.5-3,0.7-4.5
			c1.1-6,2.6-11.9,4.6-17.7c0.4-1.1,0.8-2.2,1.2-3.3c0.2-0.7,0.5-1.3,0.8-2c1.4-3.5-3.2,7.3-1.7,3.9c1.2-2.7,2.4-5.3,3.8-7.9
			c1.2-2.2,2.5-4.4,3.8-6.5c1.8-2.8,8.3-10.5,0.7-1.5c3.9-4.6,7.9-8.7,12.4-12.7c4.9-4.4,10-8.5,15.1-12.6c4.4-3.5-5.1,3.9-0.6,0.5
			c1.2-0.9,2.4-1.8,3.5-2.7c2.6-2,5.3-3.9,8-5.9c18.1-13.3,37-26.3,49-45.8c12-19.7,16-46.5,10.4-68.8
			c-4.1-16.4-14.5-30.5-25.8-42.6c-10.8-11.5-23-21.7-34.6-32.4c-6.3-5.8-12.4-11.8-18.2-18.1c-3-3.2-5.9-6.6-8.6-10
			c-0.7-0.9-1.4-1.8-2.1-2.6c5.7,7,2.7,3.5,1.5,1.9c-1.3-1.8-2.7-3.7-3.9-5.5c-2.6-3.8-5-7.7-7.2-11.8c-1.1-2.1-2.2-4.1-3.2-6.3
			c-0.5-1.1-1-2.1-1.5-3.2c-2.8-6.1,2,5.2,0.3,0.9c-3.7-9.6-6.3-19.3-8.1-29.5c-0.9-5.2,0.5,7.1,0.2,1.8c-0.1-1-0.1-0.9-0.2-1.4
			c0-0.1,0-0.3,0-0.4c0-0.8,0-1.6,0.1-2.4c0.1-3.4,0.5-6.7,0.9-10c-1.4,12.7-0.3,2.5,0.3-0.7c0.6-3.1,1.3-6.3,2.1-9.4
			c1.7-6.9,4-13.6,6.6-20.2c0.8-2,2.7-5.9-1.2,2.8c0.4-0.9,0.8-1.9,1.2-2.8c0.9-1.9,1.8-3.8,2.7-5.7c2-4,4.1-7.8,6.4-11.6
			c2.4-4.1,5.1-8,7.9-11.8c0.7-1,1.5-2,2.2-3c-5.1,7.1-2.4,3.1-1.1,1.5c1.6-2,3.3-4,5-5.9c3.6-4.1,7.4-8,11.4-11.7
			c2.1-2,4.2-3.9,6.4-5.7c1.1-0.9,2.3-1.9,3.4-2.8c2.2-1.7,1.5-1.2-1.9,1.4c0.8-0.6,1.6-1.2,2.4-1.8c8.7-6.4,17.9-12.1,27.4-17.1
			c3.8-2,7.7-3.9,11.5-5.7c1.7-0.8,3.4-1.6,5.1-2.3c1.1-0.5,2.1-0.9,3.2-1.4c4.1-1.8-7.2,3-1,0.4c9.8-4,19.8-7.6,29.9-10.7
			c22.4-7,45.4-12.1,68.7-15.6c1.6-0.2,3.2-0.4,4.7-0.7c-8.4,1.4-2.6,0.4-0.8,0.1c3.2-0.4,6.5-0.8,9.7-1.1
			c6.6-0.7,13.3-1.2,19.9-1.6c14.4-0.9,28.9-1.2,43.4-0.8c14.6,0.4,29.2,1.4,43.8,3.1c1.9,0.2,3.7,0.5,5.6,0.7
			c6.6,0.8-6.3-0.9,0.3,0c3.8,0.6,7.6,1.1,11.3,1.8c7.7,1.3,15.3,2.7,22.9,4.4c11.6,2.5,23.2,5.5,34.4,9.3c4.9,1.7,9.6,3.6,14.4,5.5
			c-9.2-3.5-0.5-0.2,1.7,0.8c2.7,1.2,5.3,2.5,7.9,3.8c8.7,4.4,17.2,9.2,25.4,14.5c4,2.6,7.9,5.3,11.8,8.1c1.6,1.2,3.2,2.3,4.7,3.5
			c3.9,2.9-5.5-4.3-1.7-1.4c1.2,1,2.4,1.9,3.7,2.9c14.3,11.6,27.5,24.6,39.6,38.6c2.6,3,5.1,6.1,7.6,9.1c1.3,1.7,2.6,3.3,4,5
			c-6.5-8.2-0.6-0.8,0.9,1.3c4.8,6.6,9.5,13.3,13.9,20.1c8.2,12.6,15.6,25.7,22.4,39.1c2.9,5.7,5.6,11.4,8.2,17.2
			c1.2,2.6,2.3,5.3,3.5,7.9c1.5,3.5-3.1-7.4-1.7-3.9c0.3,0.6,0.5,1.2,0.8,1.8c0.5,1.2,1,2.4,1.5,3.6c3,7.5,5.8,15,8.3,22.6
			C694.4,287.1,695.3,289.8,696,292.4c3.7,13.6,19.4,23.3,33.2,18.9c14-4.5,22.8-18.6,18.9-33.2c-3.1-11.2-7.3-22.2-11.7-33
			c-11.4-27.7-24.7-54.5-41.2-79.6c-21.1-32-46.4-61.7-76.7-85.3c-17.1-13.4-35-25.3-54.7-34.6c-23.3-11-47.4-18.7-72.6-23.8
			c-61.8-12.6-124.7-13.8-187-4.2c-44.6,6.9-89.2,19.9-129.1,41.2c-42.8,22.9-76.2,58.7-94.6,103.6c-5,12.3-8.6,25.1-10.5,38.2
			c-1.2,8.4-2.6,16.8-1.6,25.2c3.2,24.5,10.7,47.8,24.1,68.8c10.7,16.8,24,31.8,38.4,45.5c11.9,11.3,24.5,21.7,35.9,33.5
			c2.4,2.5,4.8,5,7,7.7c1.7,2,5.3,7.7-0.6-0.9c1.1,1.5,2.2,3,3.2,4.6c1.7,2.6,3.1,5.3,4.5,8c1.8,3.5-2.8-7.4-1.6-3.7
			c0.2,0.7,0.5,1.4,0.8,2.1c0.6,1.6,1,3.3,1.4,5c0.2,0.7,0.3,1.5,0.4,2.2c0.8,3.9-0.8-8.2-0.6-4.2c0.1,2,0.2,4,0.2,6
			c0,2.8-0.2,5.5-0.4,8.3c-0.3,5.2,1.2-7.1,0.3-2.1c-0.2,1.2-0.4,2.4-0.7,3.6c-0.5,2.3-1.1,4.5-1.8,6.7c-0.4,1.1-0.8,2.1-1.1,3.1
			c2.7-8.1,2-4.6,1-2.5c-0.9,1.9-2,3.8-3.1,5.6c-0.6,0.9-1.2,1.7-1.8,2.6c-2.4,3.6,5-6.1,1-1.3c-2.8,3.4-5.9,6.4-9.2,9.4
			c-1.7,1.5-3.5,3-5.3,4.5c-0.9,0.8-1.9,1.5-2.8,2.2c-3.5,2.8,6-4.6,0.6-0.5c-10.7,8.1-21.6,15.9-32.2,24.2
			c-14.3,11.2-27.3,22.6-37.3,37.9c-7.2,11-12.5,23.7-16.1,36.4c-8.3,29.9-7.1,63.1,3.3,92.3c14,39.4,41,70.5,74.4,95
			c20.9,15.3,44,26.7,67.8,36.5c27.7,11.4,56.7,19.8,86.3,24.8c56.1,9.4,113.4,7.5,168.4-7.6c46.3-12.7,90.9-34.1,129.6-62.5
			c35.2-25.8,65-56.2,91.2-91c25.4-33.6,45.1-71.6,57.3-111.9c14.4-47.5,18.1-98.2,13.2-147.5c-3-29.8-8.4-59.4-16-88.4
			c-3.6-13.7-19.4-23.3-33.2-18.9C700.8,263.8,692.2,277.8,696,292.4L696,292.4z"/>
	</g>
</g>
<g class="st0">
	<g class="st1">
		<path class="st2" d="M282.6,635.7c22.4,0.6,43.3-12.8,56.2-30.3c5.3-7.2,8.9-15.6,11.6-24.1c1.4-4.4,2.3-8.9,3-13.5
			c0.6-4,1.1-8.1,1.5-12.2c0.1-1,0.3-2.1,0.4-3.1c-0.1,6.1-0.2,1.6,0-0.1c1.4-9.1,3.5-18.2,6.6-26.9c0.7-1.9,1.4-3.7,2.1-5.6
			c1-2.8-2.5,5.5-0.7,1.7c0.3-0.7,0.6-1.4,0.9-2c1.7-3.5,3.5-6.9,5.6-10.2c0.8-1.3,1.6-2.5,2.5-3.7c0.5-0.7,1-1.3,1.4-2
			c2.2-3.1-3.3,4-1.5,1.9c2.1-2.4,4.1-4.8,6.3-7c2-2,4.1-3.8,6.3-5.6c2.4-2-5.5,3.9-1.1,0.9c1.2-0.8,2.3-1.6,3.5-2.4
			c2.1-1.3,4.2-2.5,6.4-3.6c1-0.5,2.1-1,3.2-1.5c4.1-1.9-5.8,2.2-1.7,0.7c3.9-1.4,7.8-2.7,11.9-3.7c1.6-0.4,3.2-0.7,4.9-1
			c2.2-0.4,6.2-0.5-3.2,0.4c0.9-0.1,1.7-0.2,2.6-0.3c2.1-0.2,4.3-0.3,6.4-0.3c0.8,0,1.7,0.1,2.5,0.1c7.6-0.1,13.3-4,18.4-9
			c40.4-40.4,81.6-79.7,124.6-117.3c43-37.5,86.4-74.5,131.4-109.7c-6.3,4.9-1,0.7,0.4-0.3c1.4-1,2.7-2.1,4.1-3.1c2.6-2,5.3-4,7.9-6
			c5-3.7,10.1-7.4,15.3-11c8-5.6,16.2-11.1,24.9-15.8c1.5-0.8,3-1.6,4.6-2.3c3.7-1.8-2,1.2-3,1.2c0.7,0,1.7-0.7,2.4-0.9
			c1.1-0.4,2.3-0.6,3.4-0.9c2.5-0.8-7.7,0.6-4.4,0.6c2.7,0,2.4,1-4.4-0.7c2.4,0.6,0.7,1.2-4.2-1.9c2.2,1.4-5.4-4.5-3.7-2.9
			c-4.7-4.4-5.1-8-5.7-13.6c0,0.4,0,0.8,0,1.2c0.1,3.1,1.5-7.3,0.6-4.3c-0.3,1.2-0.6,2.4-1,3.5c-0.2,0.6-0.4,1.1-0.6,1.7
			c-1.5,4.1,2.4-5.4,1.2-2.9c-0.8,1.7-1.6,3.4-2.4,5.1c-1.9,3.7-4,7.3-6.1,10.8c-5.4,9.1-11.4,17.9-17.4,26.6
			c-15.1,21.8-31.1,42.9-47.3,63.9c-2.1,2.7,1.7-2.2,1.7-2.2c-0.6,0.8-1.2,1.6-1.8,2.4c-1,1.3-2,2.6-3.1,4c-2,2.6-4.1,5.2-6.1,7.8
			c-3.9,5-7.9,10-11.8,15c-7.1,9.1-14.3,18.1-21.5,27.2c-8.6,10.8-18.5,21.5-25.7,33.3c2.6-4.3,4.7-5.6,1.8-2.6
			c-1.7,1.8-3.5,3.5-5.2,5.3c-6.3,6.3-12.5,12.7-18.8,19c-18.1,18.3-36.2,36.7-54.3,55c-13.9,14.1-27.8,28.2-41.7,42.3
			c-6,6.1-10,11.1-10.8,20.8c-0.2,2.9-1.7,11.3,0.1,0.9c-0.7,4.1-1.3,8.1-2.3,12.1c-1.3,5.4-3,10.7-5,15.9c-2.1,5.4,1.7-3.7,0.4-0.8
			c-0.7,1.4-1.3,2.9-2,4.3c-1.6,3.2-3.3,6.4-5.2,9.4c-1.6,2.6-3.5,5.1-5.2,7.6c4.5-6.4,0.8-1.1-0.5,0.4c-1.4,1.6-2.9,3.2-4.5,4.7
			c-1.3,1.3-2.7,2.6-4.1,3.8c-0.6,0.5-1.2,1-1.7,1.5c-3.2,2.7,3.8-2.6,1.4-1.1c-3.5,2.3-6.9,4.7-10.6,6.7c-1.8,0.9-4,1.6-5.6,2.7
			c3.9-2.6,3.6-1.4,1.8-0.8c-1.2,0.5-2.5,0.9-3.7,1.4c-5.3,1.8-10.9,3.3-16.4,4.5c-3,0.7-5.9,1.3-8.9,1.8c-1.5,0.3-3,0.5-4.5,0.7
			c-1.7,0.3-4.8,1.7-0.2,0.1c-2.5,0.9-6.2,0.7-8.8,0.9c-2.9,0.3-5.8,0.5-8.7,0.6c-11.1,0.6-22.2,0.4-33.2-0.3
			c-4.5-0.3-9-0.7-13.5-1.2c-2.2-0.2-4.3-0.6-6.5-0.8c7.9,0.8-0.5-0.1-2.3-0.4c-7.8-1.2-15.7-2.7-23.4-4.8
			c-11.3-3.1-25,3.9-27.7,15.7c-2.7,11.9,3.6,24.4,15.7,27.7c14.2,3.9,29,5.8,43.5,7.5c29.2,3.3,59,2.4,87.8-3.6
			c25-5.2,48.9-16.1,66-35.5c12.9-14.7,22-32,27.5-50.8c3-10.1,5.1-21,5.5-31.5c-2.2,5.3-4.4,10.6-6.6,15.9
			c15.1-15.3,30.1-30.6,45.2-45.8c23-23.3,45.9-46.6,68.9-69.9c5.3-5.3,11-10.4,15.3-16.6c1.2-1.8,2.5-3.6,3.8-5.3
			c0.5-0.7,1-1.4,1.6-2c1.9-2.4-2.6,3.3-2.4,3.2c0.4-0.5,0.8-1,1.2-1.5c1.5-1.9,3-3.8,4.5-5.7c20.4-25.9,40.9-51.7,61.1-77.8
			c20.7-26.9,41.6-54,59.7-82.7c6.4-10.1,12.9-20.9,16.5-32.4c5.5-17.9-4.6-36.9-24.5-37.4c-12-0.3-23.7,6.6-33.6,12.6
			c-13.3,8-25.8,17.2-38.2,26.5c-33.6,25.3-66.1,52.2-98.1,79.5c-24.2,20.5-48.1,41.3-71.9,62.3c-33.9,30-66.3,61.8-98.3,93.7
			c-2.2,2.2-4.3,4.3-6.5,6.5c5.3-2.2,10.6-4.4,15.9-6.6c-7.6-0.6-15.7,0.8-23.1,2.3c-16.6,3.3-31.5,11.4-44.5,21.9
			c-18.1,14.7-29.8,36.7-36.3,58.7c-1.9,6.4-3.3,13-4.4,19.6c-0.8,5.3-1.5,10.6-2.1,15.9c-0.1,0.8-0.2,1.6-0.2,2.4
			c-0.2,3.2,0.7-4.5,0.2-1.4c-0.3,1.9-0.6,3.8-1,5.7c-0.6,3-1.4,6-2.4,8.9c-0.4,1.3-1.1,2.6-1.5,4c1.9-6.5,0.7-1.7-0.3,0.3
			c-1.1,2.1-2.4,4.1-3.8,6.2c-2.4,3.6,3.2-3.7,0.9-1.1c-0.8,0.9-1.6,1.8-2.4,2.7c-0.8,0.8-1.6,1.6-2.5,2.4c-0.4,0.4-0.9,0.7-1.3,1.1
			c-2.4,2.2,4.4-3.1,2.3-1.8c-1.8,1.1-3.6,2.4-5.5,3.4c-0.8,0.4-1.7,0.8-2.5,1.3c-2.3,1.2,6.3-2.4,2.3-1c-1.6,0.5-3.2,1.1-4.9,1.6
			c-1.3,0.3-2.6,0.6-4,0.9c-4.9,1,7-0.6,2.3-0.3c-1,0.1-1.9,0.2-2.9,0.1c-11.8-0.3-23,10.6-22.5,22.5
			C260.6,625.6,270,635.3,282.6,635.7z"/>
	</g>
</g>
<g class="st0">
	<g class="st1">
		<path class="st2" d="M404.3,475.7c18.3,18.3,36.5,36.5,54.8,54.8c2.6,2.6,5.3,5.3,7.9,7.9c8.3,8.3,23.6,9,31.8,0
			c8.2-9,8.9-22.9,0-31.8c-18.3-18.3-36.5-36.5-54.8-54.8c-2.6-2.6-5.3-5.3-7.9-7.9c-8.3-8.3-23.6-9-31.8,0
			C396.1,452.9,395.4,466.8,404.3,475.7c18.3,18.3,36.5,36.5,54.8,54.8c2.6,2.6,5.3,5.3,7.9,7.9c8.3,8.3,23.6,9,31.8,0
			c8.2-9,8.9-22.9,0-31.8c-18.3-18.3-36.5-36.5-54.8-54.8c-2.6-2.6-5.3-5.3-7.9-7.9c-8.3-8.3-23.6-9-31.8,0
			C396.1,452.9,395.4,466.8,404.3,475.7z"/>
	</g>
</g>
<g>
	<g>
		<path class="st2" d="M275.2,233c0,1.4,0,2.8-0.1,4.2c0,0.7-0.1,1.4-0.2,2.1c-0.1,2.6,0.6-3.9,0.5-3.8c-0.6,0.7-0.7,3.8-0.9,4.7
			c-0.4,1.5-0.8,3-1.3,4.5c-0.3,0.8-1.5,3-1.4,3.8c0,0,2.6-5.5,1.4-3.4c-0.3,0.6-0.6,1.2-0.9,1.8c-1.4,2.8-3.1,5.3-4.7,7.9
			c-2.4,3.7,4-4.6,1-1.3c-0.9,1-1.7,2-2.6,2.9c-0.9,0.9-1.8,1.9-2.8,2.7c-0.9,0.8-5.2,4.2-1.3,1.3c3.8-2.9-0.1-0.1-1,0.6
			c-1.3,0.8-2.6,1.6-3.9,2.4c-1.2,0.6-2.4,1.2-3.5,1.8c-3.6,1.9,6.2-2.3,0.9-0.4c-2.5,0.9-5.1,1.7-7.8,2.2c-1.2,0.3-6.1,1-1.1,0.3
			c5.2-0.7-1.3,0-2.6,0.1c-2.8,0.1-5.6-0.1-8.4-0.3c-2.6-0.1,3.9,0.6,3.8,0.5c-0.3-0.3-1.6-0.3-2-0.4c-1.6-0.3-3.1-0.7-4.6-1.1
			c-1.5-0.4-3-0.9-4.5-1.4c-0.4-0.1-1.5-0.8-1.9-0.7c0,0,5.5,2.6,3.4,1.4c-2.5-1.4-5.1-2.6-7.5-4.1c-0.9-0.6-2.6-1.4-3.2-2.2
			c-0.4-0.5,4.8,4.3,2.9,2.2c-0.4-0.5-1-0.9-1.5-1.3c-2.3-2-4.3-4.3-6.4-6.6c-3-3.2,3.4,5,1,1.3c-0.7-1.1-1.5-2.2-2.2-3.3
			c-0.7-1.1-1.3-2.3-2-3.4c-0.4-0.8-0.8-1.6-1.2-2.4c-1.7-3.3,1.2,2.3,1.1,2.8c0.3-1.6-2-5.9-2.5-7.7c-0.3-1.3-0.6-2.7-0.9-4
			c-0.9-4.2,0.6,6.8,0.2,1c-0.2-3-0.3-6.1-0.1-9.1c0-0.7,0.1-1.4,0.2-2.1c0.1-2.6-0.6,3.9-0.5,3.8c0.6-0.7,0.7-3.7,0.9-4.7
			c0.6-2.6,1.5-5.1,2.4-7.7c0.9-2.7-1.5,3.9-1.4,3.4c0-0.6,0.8-1.8,1.1-2.4c0.7-1.4,1.4-2.7,2.2-4c0.7-1.1,1.4-2.2,2.1-3.3
			c0.3-0.4,0.7-1.3,1.1-1.6c0.5-0.3-4.2,4.9-2.2,2.9c2.2-2.2,4-4.6,6.3-6.6c0.8-0.8,4.6-3.8,0.8-0.8c-3.8,2.9,0.1,0.1,1-0.6
			c2.4-1.6,4.9-2.9,7.5-4.2c3.9-2.1-5.8,2-1.5,0.6c1.5-0.5,3-1,4.5-1.5c1.3-0.4,2.6-0.7,3.9-1c0.7-0.1,1.3-0.3,2-0.4
			c3.8-0.8-2.7,0.6-3.1,0.4c1.4,0.8,6.6-0.4,8.4-0.4c1.6,0,3.2,0.2,4.9,0.3c2.6,0.1-3.9-0.6-3.8-0.5c0.4,0.4,2.1,0.4,2.7,0.5
			c3.1,0.6,6.1,1.6,9.1,2.6c3.9,1.3-5.9-2.9-1-0.4c1.6,0.8,3.1,1.6,4.6,2.5c1.3,0.8,2.6,1.7,3.9,2.5c3.4,2.2-4.9-4.3-0.8-0.6
			c2.3,2.1,4.4,4.2,6.5,6.5c3.8,4.1-3.3-5.1-0.2-0.3c0.8,1.3,1.7,2.6,2.5,3.9c0.8,1.3,1.5,2.7,2.2,4.1c2.6,4.9-1.7-4.9-0.4-1
			c1.1,3.2,2.1,6.4,2.7,9.7c1.1,5.7-0.4-5.4-0.1-1.1C275.1,229.3,275.2,231.1,275.2,233c0.2,14.1,12.3,27.7,27,27
			c14.5-0.6,27.2-11.9,27-27c-0.4-38.2-24.4-70.4-59.8-83.6c-32.7-12.2-73.5-1-95.5,26c-12.5,15.3-19.5,32.4-21.3,52.1
			c-1.6,17.3,3.2,36,12.2,50.8c19.8,32.9,57.7,48.3,94.9,41.2c40.5-7.8,69.1-46.1,69.6-86.4c0.2-14.1-12.5-27.6-27-27
			C287.4,206.7,275.4,217.9,275.2,233z"/>
	</g>
</g>
<g>
	<g>
		<path class="st2" d="M459.7,184.3c0,1.4,0,2.8-0.1,4.2c0,0.7-0.1,1.4-0.2,2.1c-0.1,2.6,0.6-3.9,0.5-3.8c-0.6,0.7-0.7,3.8-0.9,4.7
			c-0.4,1.5-0.8,3-1.3,4.5c-0.3,0.8-1.5,3-1.4,3.8c0,0,2.6-5.5,1.4-3.4c-0.3,0.6-0.6,1.2-0.9,1.8c-1.4,2.8-3.1,5.3-4.7,7.9
			c-2.4,3.7,4-4.6,1-1.3c-0.9,1-1.7,2-2.6,2.9c-0.9,0.9-1.8,1.9-2.8,2.7c-0.9,0.8-5.2,4.2-1.3,1.3c3.8-2.9-0.1-0.1-1,0.6
			c-1.3,0.8-2.6,1.6-3.9,2.4c-1.2,0.6-2.4,1.2-3.5,1.8c-3.6,1.9,6.2-2.3,0.9-0.4c-2.5,0.9-5.1,1.7-7.8,2.2c-1.2,0.3-6.1,1-1.1,0.3
			c5.2-0.7-1.3,0-2.6,0.1c-2.8,0.1-5.6-0.1-8.4-0.3c-2.6-0.1,3.9,0.6,3.8,0.5c-0.3-0.3-1.6-0.3-2-0.4c-1.6-0.3-3.1-0.7-4.6-1.1
			c-1.5-0.4-3-0.9-4.5-1.4c-0.4-0.1-1.5-0.8-1.9-0.7c0,0,5.5,2.6,3.4,1.4c-2.5-1.4-5.1-2.6-7.5-4.1c-0.9-0.6-2.6-1.4-3.2-2.2
			c-0.4-0.5,4.8,4.3,2.9,2.2c-0.4-0.5-1-0.9-1.5-1.3c-2.3-2-4.3-4.3-6.4-6.6c-3-3.2,3.4,5,1,1.3c-0.7-1.1-1.5-2.2-2.2-3.3
			c-0.7-1.1-1.3-2.3-2-3.4c-0.4-0.8-0.8-1.6-1.2-2.4c-1.7-3.3,1.2,2.3,1.1,2.8c0.3-1.6-2-5.9-2.5-7.7c-0.3-1.3-0.6-2.7-0.9-4
			c-0.9-4.2,0.6,6.8,0.2,1c-0.2-3-0.3-6.1-0.1-9.1c0-0.7,0.1-1.4,0.2-2.1c0.1-2.6-0.6,3.9-0.5,3.8c0.6-0.7,0.7-3.7,0.9-4.7
			c0.6-2.6,1.5-5.1,2.4-7.7c0.9-2.7-1.5,3.9-1.4,3.4c0-0.6,0.8-1.8,1.1-2.4c0.7-1.4,1.4-2.7,2.2-4c0.7-1.1,1.4-2.2,2.1-3.3
			c0.3-0.4,0.7-1.3,1.1-1.6c0.5-0.3-4.2,4.9-2.2,2.9c2.2-2.2,4-4.6,6.3-6.6c0.8-0.8,4.6-3.8,0.8-0.8c-3.8,2.9,0.1,0.1,1-0.6
			c2.4-1.6,4.9-2.9,7.5-4.2c3.9-2.1-5.8,2-1.5,0.6c1.5-0.5,3-1,4.5-1.5c1.3-0.4,2.6-0.7,3.9-1c0.7-0.1,1.3-0.3,2-0.4
			c3.8-0.8-2.7,0.6-3.1,0.4c1.4,0.8,6.6-0.4,8.4-0.4c1.6,0,3.2,0.2,4.9,0.3c2.6,0.1-3.9-0.6-3.8-0.5c0.4,0.4,2.1,0.4,2.7,0.5
			c3.1,0.6,6.1,1.6,9.1,2.6c3.9,1.3-5.9-2.9-1-0.4c1.6,0.8,3.1,1.6,4.6,2.5c1.3,0.8,2.6,1.7,3.9,2.5c3.4,2.2-4.9-4.3-0.8-0.6
			c2.3,2.1,4.4,4.2,6.5,6.5c3.8,4.1-3.3-5.1-0.2-0.3c0.8,1.3,1.7,2.6,2.5,3.9c0.8,1.3,1.5,2.7,2.2,4.1c2.6,4.9-1.7-4.9-0.4-1
			c1.1,3.2,2.1,6.4,2.7,9.7c1.1,5.7-0.4-5.4-0.1-1.1C459.6,180.6,459.7,182.4,459.7,184.3c0.2,14.1,12.3,27.7,27,27
			c14.5-0.6,27.2-11.9,27-27c-0.4-38.2-24.4-70.4-59.8-83.6c-32.7-12.2-73.5-1-95.5,26c-12.5,15.3-19.5,32.4-21.3,52.1
			c-1.6,17.3,3.2,36,12.2,50.8c19.8,32.9,57.7,48.3,94.9,41.2c40.5-7.8,69.1-46.1,69.6-86.4c0.2-14.1-12.5-27.6-27-27
			C472,158,459.9,169.2,459.7,184.3z"/>
	</g>
</g>
<g>
	<g>
		<path class="st2" d="M616.5,294.5c0,1.4,0,2.8-0.1,4.2c0,0.7-0.1,1.4-0.2,2.1c-0.1,2.6,0.6-3.9,0.5-3.8c-0.6,0.7-0.7,3.8-0.9,4.7
			c-0.4,1.5-0.8,3-1.3,4.5c-0.3,0.8-1.5,3-1.4,3.8c0,0,2.6-5.5,1.4-3.4c-0.3,0.6-0.6,1.2-0.9,1.8c-1.4,2.8-3.1,5.3-4.7,7.9
			c-2.4,3.7,4-4.6,1-1.3c-0.9,1-1.7,2-2.6,2.9c-0.9,0.9-1.8,1.9-2.8,2.7c-0.9,0.8-5.2,4.2-1.3,1.3c3.8-2.9-0.1-0.1-1,0.6
			c-1.3,0.8-2.6,1.6-3.9,2.4c-1.2,0.6-2.4,1.2-3.5,1.8c-3.6,1.9,6.2-2.3,0.9-0.4c-2.5,0.9-5.1,1.7-7.8,2.2c-1.2,0.3-6.1,1-1.1,0.3
			c5.2-0.7-1.3,0-2.6,0.1c-2.8,0.1-5.6-0.1-8.4-0.3c-2.6-0.1,3.9,0.6,3.8,0.5c-0.3-0.3-1.6-0.3-2-0.4c-1.6-0.3-3.1-0.7-4.6-1.1
			c-1.5-0.4-3-0.9-4.5-1.4c-0.4-0.1-1.5-0.8-1.9-0.7c0,0,5.5,2.6,3.4,1.4c-2.5-1.4-5.1-2.6-7.5-4.1c-0.9-0.6-2.6-1.4-3.2-2.2
			c-0.4-0.5,4.8,4.3,2.9,2.2c-0.4-0.5-1-0.9-1.5-1.3c-2.3-2-4.3-4.3-6.4-6.6c-3-3.2,3.4,5,1,1.3c-0.7-1.1-1.5-2.2-2.2-3.3
			c-0.7-1.1-1.3-2.3-2-3.4c-0.4-0.8-0.8-1.6-1.2-2.4c-1.7-3.3,1.2,2.3,1.1,2.8c0.3-1.6-2-5.9-2.5-7.7c-0.3-1.3-0.6-2.7-0.9-4
			c-0.9-4.2,0.6,6.8,0.2,1c-0.2-3-0.3-6.1-0.1-9.1c0-0.7,0.1-1.4,0.2-2.1c0.1-2.6-0.6,3.9-0.5,3.8c0.6-0.7,0.7-3.7,0.9-4.7
			c0.6-2.6,1.5-5.1,2.4-7.7c0.9-2.7-1.5,3.9-1.4,3.4c0-0.6,0.8-1.8,1.1-2.4c0.7-1.4,1.4-2.7,2.2-4c0.7-1.1,1.4-2.2,2.1-3.3
			c0.3-0.4,0.7-1.3,1.1-1.6c0.5-0.3-4.2,4.9-2.2,2.9c2.2-2.2,4-4.6,6.3-6.6c0.8-0.8,4.6-3.8,0.8-0.8c-3.8,2.9,0.1,0.1,1-0.6
			c2.4-1.6,4.9-2.9,7.5-4.2c3.9-2.1-5.8,2-1.5,0.6c1.5-0.5,3-1,4.5-1.5c1.3-0.4,2.6-0.7,3.9-1c0.7-0.1,1.3-0.3,2-0.4
			c3.8-0.8-2.7,0.6-3.1,0.4c1.4,0.8,6.6-0.4,8.4-0.4c1.6,0,3.2,0.2,4.9,0.3c2.6,0.1-3.9-0.6-3.8-0.5c0.4,0.4,2.1,0.4,2.7,0.5
			c3.1,0.6,6.1,1.6,9.1,2.6c3.9,1.3-5.9-2.9-1-0.4c1.6,0.8,3.1,1.6,4.6,2.5c1.3,0.8,2.6,1.7,3.9,2.5c3.4,2.2-4.9-4.3-0.8-0.6
			c2.3,2.1,4.4,4.2,6.5,6.5c3.8,4.1-3.3-5.1-0.2-0.3c0.8,1.3,1.7,2.6,2.5,3.9c0.8,1.3,1.5,2.7,2.2,4.1c2.6,4.9-1.7-4.9-0.4-1
			c1.1,3.2,2.1,6.4,2.7,9.7c1.1,5.7-0.4-5.4-0.1-1.1C616.3,290.7,616.5,292.6,616.5,294.5c0.2,14.1,12.3,27.7,27,27
			c14.5-0.6,27.2-11.9,27-27c-0.4-38.2-24.4-70.4-59.8-83.6c-32.7-12.2-73.5-1-95.5,26c-12.5,15.3-19.5,32.4-21.3,52.1
			c-1.6,17.3,3.2,36,12.2,50.8c19.8,32.9,57.7,48.3,94.9,41.2c40.5-7.8,69.1-46.1,69.6-86.4c0.2-14.1-12.5-27.6-27-27
			C628.7,268.1,616.7,279.3,616.5,294.5z"/>
	</g>
</g>
<g>
	<g>
		<path class="st2" d="M294.9,579.7c0,1.4,0,2.8-0.1,4.2c0,0.7-0.1,1.4-0.2,2.1c-0.1,2.6,0.6-3.9,0.5-3.8c-0.6,0.7-0.7,3.8-0.9,4.7
			c-0.4,1.5-0.8,3-1.3,4.5c-0.3,0.8-1.5,3-1.4,3.8c0,0,2.6-5.5,1.4-3.4c-0.3,0.6-0.6,1.2-0.9,1.8c-1.4,2.8-3.1,5.3-4.7,7.9
			c-2.4,3.7,4-4.6,1-1.3c-0.9,1-1.7,2-2.6,2.9c-0.9,0.9-1.8,1.9-2.8,2.7c-0.9,0.8-5.2,4.2-1.3,1.3c3.8-2.9-0.1-0.1-1,0.6
			c-1.3,0.8-2.6,1.6-3.9,2.4c-1.2,0.6-2.4,1.2-3.5,1.8c-3.6,1.9,6.2-2.3,0.9-0.4c-2.5,0.9-5.1,1.7-7.8,2.2c-1.2,0.3-6.1,1-1.1,0.3
			c5.2-0.7-1.3,0-2.6,0.1c-2.8,0.1-5.6-0.1-8.4-0.3c-2.6-0.1,3.9,0.6,3.8,0.5c-0.3-0.3-1.6-0.3-2-0.4c-1.6-0.3-3.1-0.7-4.6-1.1
			c-1.5-0.4-3-0.9-4.5-1.4c-0.4-0.1-1.5-0.8-1.9-0.7c0,0,5.5,2.6,3.4,1.4c-2.5-1.4-5.1-2.6-7.5-4.1c-0.9-0.6-2.6-1.4-3.2-2.2
			c-0.4-0.5,4.8,4.3,2.9,2.2c-0.4-0.5-1-0.9-1.5-1.3c-2.3-2-4.3-4.3-6.4-6.6c-3-3.2,3.4,5,1,1.3c-0.7-1.1-1.5-2.2-2.2-3.3
			c-0.7-1.1-1.3-2.3-2-3.4c-0.4-0.8-0.8-1.6-1.2-2.4c-1.7-3.3,1.2,2.3,1.1,2.8c0.3-1.6-2-5.9-2.5-7.7c-0.3-1.3-0.6-2.7-0.9-4
			c-0.9-4.2,0.6,6.8,0.2,1c-0.2-3-0.3-6.1-0.1-9.1c0-0.7,0.1-1.4,0.2-2.1c0.1-2.6-0.6,3.9-0.5,3.8c0.6-0.7,0.7-3.7,0.9-4.7
			c0.6-2.6,1.5-5.1,2.4-7.7c0.9-2.7-1.5,3.9-1.4,3.4c0-0.6,0.8-1.8,1.1-2.4c0.7-1.4,1.4-2.7,2.2-4c0.7-1.1,1.4-2.2,2.1-3.3
			c0.3-0.4,0.7-1.3,1.1-1.6c0.5-0.3-4.2,4.9-2.2,2.9c2.2-2.2,4-4.6,6.3-6.6c0.8-0.8,4.6-3.8,0.8-0.8c-3.8,2.9,0.1,0.1,1-0.6
			c2.4-1.6,4.9-2.9,7.5-4.2c3.9-2.1-5.8,2-1.5,0.6c1.5-0.5,3-1,4.5-1.5c1.3-0.4,2.6-0.7,3.9-1c0.7-0.1,1.3-0.3,2-0.4
			c3.8-0.8-2.7,0.6-3.1,0.4c1.4,0.8,6.6-0.4,8.4-0.4c1.6,0,3.2,0.2,4.9,0.3c2.6,0.1-3.9-0.6-3.8-0.5c0.4,0.4,2.1,0.4,2.7,0.5
			c3.1,0.6,6.1,1.6,9.1,2.6c3.9,1.3-5.9-2.9-1-0.4c1.6,0.8,3.1,1.6,4.6,2.5c1.3,0.8,2.6,1.7,3.9,2.5c3.4,2.2-4.9-4.3-0.8-0.6
			c2.3,2.1,4.4,4.2,6.5,6.5c3.8,4.1-3.3-5.1-0.2-0.3c0.8,1.3,1.7,2.6,2.5,3.9c0.8,1.3,1.5,2.7,2.2,4.1c2.6,4.9-1.7-4.9-0.4-1
			c1.1,3.2,2.1,6.4,2.7,9.7c1.1,5.7-0.4-5.4-0.1-1.1C294.8,575.9,294.9,577.8,294.9,579.7c0.2,14.1,12.3,27.7,27,27
			c14.5-0.6,27.2-11.9,27-27c-0.4-38.2-24.4-70.4-59.8-83.6c-32.7-12.2-73.5-1-95.5,26c-12.5,15.3-19.5,32.4-21.3,52.1
			c-1.6,17.3,3.2,36,12.2,50.8c19.8,32.9,57.7,48.3,94.9,41.2c40.5-7.8,69.1-46.1,69.6-86.4c0.2-14.1-12.5-27.6-27-27
			C307.2,553.3,295.1,564.5,294.9,579.7z"/>
	</g>
</g>
<g>
	<g>
		<path class="st2" d="M622.6,491.4c0,1.4,0,2.8-0.1,4.2c0,0.7-0.1,1.4-0.2,2.1c-0.1,2.6,0.6-3.9,0.5-3.8c-0.6,0.7-0.7,3.8-0.9,4.7
			c-0.4,1.5-0.8,3-1.3,4.5c-0.3,0.8-1.5,3-1.4,3.8c0,0,2.6-5.5,1.4-3.4c-0.3,0.6-0.6,1.2-0.9,1.8c-1.4,2.8-3.1,5.3-4.7,7.9
			c-2.4,3.7,4-4.6,1-1.3c-0.9,1-1.7,2-2.6,2.9c-0.9,0.9-1.8,1.9-2.8,2.7c-0.9,0.8-5.2,4.2-1.3,1.3c3.8-2.9-0.1-0.1-1,0.6
			c-1.3,0.8-2.6,1.6-3.9,2.4c-1.2,0.6-2.4,1.2-3.5,1.8c-3.6,1.9,6.2-2.3,0.9-0.4c-2.5,0.9-5.1,1.7-7.8,2.2c-1.2,0.3-6.1,1-1.1,0.3
			c5.2-0.7-1.3,0-2.6,0.1c-2.8,0.1-5.6-0.1-8.4-0.3c-2.6-0.1,3.9,0.6,3.8,0.5c-0.3-0.3-1.6-0.3-2-0.4c-1.6-0.3-3.1-0.7-4.6-1.1
			c-1.5-0.4-3-0.9-4.5-1.4c-0.4-0.1-1.5-0.8-1.9-0.7c0,0,5.5,2.6,3.4,1.4c-2.5-1.4-5.1-2.6-7.5-4.1c-0.9-0.6-2.6-1.4-3.2-2.2
			c-0.4-0.5,4.8,4.3,2.9,2.2c-0.4-0.5-1-0.9-1.5-1.3c-2.3-2-4.3-4.3-6.4-6.5c-3-3.2,3.4,5,1,1.3c-0.7-1.1-1.5-2.2-2.2-3.3
			c-0.7-1.1-1.3-2.3-2-3.4c-0.4-0.8-0.8-1.6-1.2-2.4c-1.7-3.3,1.2,2.3,1.1,2.8c0.3-1.6-2-5.9-2.5-7.7c-0.3-1.3-0.6-2.7-0.9-4
			c-0.9-4.2,0.6,6.8,0.2,1c-0.2-3-0.3-6.1-0.1-9.1c0-0.7,0.1-1.4,0.2-2.1c0.1-2.6-0.6,3.9-0.5,3.8c0.6-0.7,0.7-3.7,0.9-4.7
			c0.6-2.6,1.5-5.1,2.4-7.7c0.9-2.7-1.5,3.9-1.4,3.4c0-0.6,0.8-1.8,1.1-2.4c0.7-1.4,1.4-2.7,2.2-4c0.7-1.1,1.4-2.2,2.1-3.3
			c0.3-0.4,0.7-1.3,1.1-1.6c0.5-0.3-4.2,4.9-2.2,2.9c2.2-2.2,4-4.6,6.3-6.6c0.8-0.8,4.6-3.8,0.8-0.8c-3.8,2.9,0.1,0.1,1-0.6
			c2.4-1.6,4.9-2.9,7.5-4.2c3.9-2.1-5.8,2-1.5,0.6c1.5-0.5,3-1,4.5-1.5c1.3-0.4,2.6-0.7,3.9-1c0.7-0.1,1.3-0.3,2-0.4
			c3.8-0.8-2.7,0.6-3.1,0.4c1.4,0.8,6.6-0.4,8.4-0.4c1.6,0,3.2,0.2,4.9,0.3c2.6,0.1-3.9-0.6-3.8-0.5c0.4,0.4,2.1,0.4,2.7,0.5
			c3.1,0.6,6.1,1.6,9.1,2.6c3.9,1.3-5.9-2.9-1-0.4c1.6,0.8,3.1,1.6,4.6,2.5c1.3,0.8,2.6,1.7,3.9,2.5c3.4,2.2-4.9-4.3-0.8-0.6
			c2.3,2.1,4.4,4.2,6.5,6.5c3.8,4.1-3.3-5.1-0.2-0.3c0.8,1.3,1.7,2.6,2.5,3.9c0.8,1.3,1.5,2.7,2.2,4.1c2.6,4.9-1.7-4.9-0.4-1
			c1.1,3.2,2.1,6.4,2.7,9.7c1.1,5.7-0.4-5.4-0.1-1.1C622.5,487.7,622.6,489.6,622.6,491.4c0.2,14.1,12.3,27.7,27,27
			c14.5-0.6,27.2-11.9,27-27c-0.4-38.2-24.4-70.4-59.8-83.6c-32.7-12.2-73.5-1-95.5,26c-12.5,15.3-19.5,32.4-21.3,52.1
			c-1.6,17.3,3.2,36,12.2,50.8c19.8,32.9,57.7,48.3,94.9,41.2c40.5-7.8,69.1-46.1,69.6-86.4c0.2-14.1-12.5-27.6-27-27
			C634.8,465.1,622.8,476.3,622.6,491.4z"/>
	</g>
</g>
</svg>
