<?xml version="1.0" encoding="utf-8"?>
<!-- Generator: Adobe Illustrator 28.1.0, SVG Export Plug-In . SVG Version: 6.00 Build 0)  -->
<svg version="1.1" id="Layer_1" xmlns="http://www.w3.org/2000/svg" xmlns:xlink="http://www.w3.org/1999/xlink" x="0px" y="0px"
	 viewBox="0 0 70 70" style="enable-background:new 0 0 70 70;" xml:space="preserve">
<style type="text/css">
	.st0{fill-rule:evenodd;clip-rule:evenodd;fill:#FE375D;}
</style>
<path class="st0" d="M4.7,66.7c-0.8-0.8-1.1-1.9-0.8-3L14,24.8c0-0.1,0-0.1,0-0.2c0.9-2.8,2.9-5.2,5.6-6.5l0.1,0l14.9-7.1
	c0.6-0.3,1.3-0.5,2-0.6c0.3-1.3,1-2.5,2-3.5l2-2c2.8-2.8,7.2-2.8,10,0l16,16.1c2.8,2.8,2.8,7.3,0,10.1l-2,2c-1,1-2.2,1.7-3.4,2
	c-0.1,0.8-0.4,1.5-0.8,2.2l-7.5,14.5l0,0c-1.4,2.5-3.6,4.4-6.3,5.3c-0.1,0-0.1,0-0.2,0L7.6,67.5C6.6,67.8,5.4,67.4,4.7,66.7z
	 M54.7,33.2c0.3,0.3,0.3,0.7,0.2,1.1l0,0l-7.5,14.5c-0.6,1.1-1.5,1.9-2.7,2.3l-27.5,7.3l10.9-11c4.2,2.3,9,1.2,11.9-1.7
	c4-4,4-10.6,0-14.7c-4-4-10.5-4-14.5,0c-2.9,2.9-3.8,7.9-1.7,11.9l-10.9,11L20,26.5c0.4-1.2,1.3-2.2,2.4-2.8l14.9-7.1l0.1,0
	c0.3-0.2,0.8-0.1,1,0.2L54.7,33.2z M42.7,12.3l16.4,16.5c0.1,0.1,0.2,0.1,0.2,0.1c0,0,0.1,0,0.2,0c0.1,0,0.4-0.1,0.7-0.4l2-2
	c0.3-0.3,0.3-0.9,0-1.3l-16-16.1c-0.3-0.3-0.9-0.3-1.3,0l-2,2c-0.3,0.3-0.4,0.6-0.4,0.7c0,0.1,0,0.1,0,0.1
	C42.6,12.1,42.6,12.2,42.7,12.3z M29.9,41.2c1.9,1.9,4.3,1.5,5.6,0.2c1.6-1.6,1.6-4.2,0-5.8c-1.6-1.6-4.2-1.6-5.8,0
	C28.5,36.8,28.2,39.5,29.9,41.2z"/>
</svg>
