<svg width="70" height="70" viewBox="0 0 70 70" fill="none" xmlns="http://www.w3.org/2000/svg">
<path fill-rule="evenodd" clip-rule="evenodd" d="M0.978176 69.0136C0.137395 68.1663 -0.193043 66.9312 0.111102 65.7725L11.1072 23.8203C11.1232 23.76 11.1407 23.7002 11.1598 23.641C12.1465 20.5756 14.3126 18.0373 17.1711 16.5963L17.2267 16.5688L33.2681 8.85256C33.9676 8.50376 34.7006 8.27192 35.4435 8.15184C35.8033 6.75716 36.5482 5.45761 37.5694 4.42784L39.7242 2.25499C42.7058 -0.751662 47.5397 -0.751662 50.5208 2.25499L67.7638 19.6425C70.7454 22.6486 70.7454 27.523 67.7638 30.5297L65.609 32.7025C64.5759 33.7442 63.2758 34.4907 61.8855 34.8442C61.752 35.6686 61.4834 36.4806 61.0752 37.2468L52.9622 52.9423L52.9359 52.9927C51.4771 55.702 49.0429 57.7428 46.1355 58.6952C46.0767 58.7144 46.0174 58.7316 45.9581 58.7477L4.19283 69.888C3.04378 70.1947 1.81896 69.8615 0.978176 69.0136ZM55.0263 32.9203C55.3258 33.2223 55.3928 33.6871 55.1907 34.0624L55.1644 34.1123L47.0546 49.8015C46.4241 50.9592 45.388 51.8372 44.1497 52.2639L14.4564 60.1845L26.2062 48.3367C30.7158 50.8256 35.9461 49.5801 39.0148 46.4856C43.3492 42.1149 43.3492 35.0292 39.0148 30.6591C34.681 26.2884 27.6537 26.2884 23.3199 30.6591C20.2259 33.7785 19.2222 39.141 21.5111 43.5476L9.73033 55.4265L17.5371 25.6428C17.9799 24.337 18.9114 23.2558 20.1336 22.6315L36.1672 14.9189L36.2229 14.8919C36.591 14.7063 37.0358 14.7791 37.3266 15.0722L55.0263 32.9203ZM42.0491 10.3107L59.7488 28.1587C59.8441 28.2549 59.9184 28.2929 59.9642 28.3105C60.0127 28.3292 60.0704 28.3407 60.1457 28.3365C60.2967 28.3287 60.5808 28.2492 60.8865 27.9409L63.0418 25.7676C63.415 25.3912 63.415 24.7804 63.0418 24.4041L45.7988 7.01656C45.4256 6.64021 44.8199 6.64021 44.4467 7.01656L42.2914 9.18993C41.9707 9.51274 41.8924 9.80435 41.8846 9.94627C41.8805 10.0154 41.8903 10.0653 41.9052 10.1059C41.9197 10.1438 41.9537 10.2145 42.0491 10.3107ZM28.2388 41.5254C30.2658 43.5694 32.8855 43.1431 34.2929 41.724C36.0188 39.9831 36.0188 37.161 34.2929 35.4207C32.5665 33.6803 29.7683 33.6803 28.0419 35.4207C26.7047 36.7691 26.3784 39.6494 28.2388 41.5254Z" fill="#FE375D"/>
</svg>
