<?xml version="1.0" encoding="utf-8"?>
<!-- Generator: Adobe Illustrator 28.1.0, SVG Export Plug-In . SVG Version: 6.00 Build 0)  -->
<svg version="1.1" id="Capa_1" xmlns="http://www.w3.org/2000/svg" xmlns:xlink="http://www.w3.org/1999/xlink" x="0px" y="0px"
	 viewBox="0 0 800 800" style="enable-background:new 0 0 800 800;" xml:space="preserve">
<style type="text/css">
	.st0{display:none;opacity:0.6;}
	.st1{display:inline;}
	.st2{fill:#FE375D;}
</style>
<g class="st0">
	<g class="st1">
		<g>
			<g>
				<path d="M313.8,448.4c0-9.1-5.3-17.4-13.5-21.2l-75.2-34.9l75.2-34.9c8.2-3.8,13.5-12.1,13.5-21.2v-0.6c0-8-4-15.4-10.8-19.7
					c-3.7-2.4-8.1-3.7-12.6-3.7c-3.4,0-6.8,0.7-9.8,2.2l-120.2,55.9c-8.2,3.8-13.5,12.1-13.5,21.2v1.7c0,9,5.3,17.3,13.5,21.2
					l120.2,55.9c3.1,1.4,6.4,2.2,9.8,2.2c4.5,0,8.8-1.3,12.6-3.7c6.8-4.3,10.8-11.7,10.8-19.7L313.8,448.4L313.8,448.4z"/>
				<path d="M432.3,255.3c-4.4-6-11.4-9.6-18.9-9.6h-0.6c-10.2,0-19.1,6.5-22.2,16.2l-79.2,245.3c-2.3,7.1-1,14.9,3.4,20.9
					c4.4,6,11.4,9.6,18.9,9.6h0.6c10.2,0,19.1-6.5,22.2-16.2l79.2-245.3C438,269.1,436.7,261.3,432.3,255.3z"/>
				<path d="M586.8,370.3l-120.2-55.9c-3-1.4-6.4-2.2-9.8-2.2c-4.5,0-8.8,1.3-12.6,3.6c-6.8,4.3-10.8,11.7-10.8,19.7v0.6
					c0,9,5.3,17.4,13.5,21.2l75.2,34.9l-75.2,34.9c-8.2,3.8-13.5,12.1-13.5,21.2v0.6c0,8,4,15.4,10.8,19.7c3.8,2.4,8.1,3.7,12.6,3.7
					c3.4,0,6.7-0.7,9.8-2.2l120.2-55.9c8.2-3.8,13.5-12.1,13.5-21.2v-1.7C600.3,382.4,595,374.1,586.8,370.3z"/>
			</g>
		</g>
	</g>
</g>
<g>
	<g>
		<path class="st2" d="M222.2,241.4c-22.3,15.7-44.5,31.5-66.8,47.2C119.9,313.8,84.5,338.9,49,364c-8.1,5.8-16.3,11.5-24.4,17.3
			c-10.6,7.5-17.8,17.5-17.8,31.1c0,12.4,6.8,25,17.8,31.1c22.2,12.2,44.4,24.4,66.6,36.6c35.5,19.6,71.1,39.1,106.6,58.7
			c8.1,4.5,16.3,9,24.4,13.5c16.5,9.1,40,4.6,49.3-12.9c8.9-16.9,4.7-39.6-12.9-49.3c-22.2-12.2-44.4-24.4-66.6-36.6
			c-35.5-19.6-71.1-39.1-106.6-58.7c-8.1-4.5-16.3-9-24.4-13.5c0,20.7,0,41.4,0,62.2c22.3-15.7,44.5-31.5,66.8-47.2
			c35.5-25.1,70.9-50.2,106.4-75.3c8.1-5.8,16.3-11.5,24.4-17.3c7.8-5.5,13.9-12,16.5-21.5c2.4-8.6,1.3-20.1-3.6-27.7
			c-5-7.7-12.3-14.5-21.5-16.5C240.9,235.8,230,235.9,222.2,241.4L222.2,241.4z"/>
	</g>
</g>
<g>
	<g>
		<path class="st2" d="M538.8,303.6c22.3,15.7,44.5,31.5,66.8,47.2c35.5,25.1,70.9,50.2,106.4,75.3c8.1,5.8,16.3,11.5,24.4,17.3
			c0-20.7,0-41.4,0-62.2c-22.2,12.2-44.4,24.4-66.6,36.6c-35.5,19.6-71.1,39.1-106.6,58.7c-8.1,4.5-16.3,9-24.4,13.5
			c-16.5,9.1-23.3,33.2-12.9,49.3c10.8,16.7,31.6,22.6,49.3,12.9c22.2-12.2,44.4-24.4,66.6-36.6c35.5-19.6,71.1-39.1,106.6-58.7
			c8.1-4.5,16.3-9,24.4-13.5c11-6.1,17.8-18.7,17.8-31.1c0-13.6-7.2-23.6-17.8-31.1c-22.3-15.7-44.5-31.5-66.8-47.2
			c-35.5-25.1-70.9-50.2-106.4-75.3c-8.1-5.8-16.3-11.5-24.4-17.3c-7.2-5.1-19.5-5.9-27.7-3.6c-8.4,2.3-17.4,8.8-21.5,16.5
			c-4.4,8.4-6.6,18.5-3.6,27.7C525.2,291.4,530.7,297.9,538.8,303.6L538.8,303.6z"/>
	</g>
</g>
<g>
	<g>
		<path class="st2" d="M376.6,629.3c3.8-14.8,7.6-29.7,11.3-44.5c9-35.5,18-70.9,27.1-106.4c10.9-42.9,21.8-85.7,32.7-128.6
			c9.5-37.2,18.9-74.4,28.4-111.6c4.6-18,9.4-35.9,13.7-54c0.1-0.3,0.1-0.5,0.2-0.8c4.6-18.2-5.9-39.9-25.1-44.3
			c-18.7-4.3-39.3,5.6-44.3,25.1c-3.8,14.8-7.6,29.7-11.3,44.5c-9,35.5-18,70.9-27.1,106.4c-10.9,42.9-21.8,85.7-32.7,128.6
			c-9.5,37.2-18.9,74.4-28.4,111.6c-4.6,18-9.4,35.9-13.7,54c-0.1,0.3-0.1,0.5-0.2,0.8c-4.6,18.2,5.9,39.9,25.1,44.3
			C351.1,658.7,371.7,648.8,376.6,629.3L376.6,629.3z"/>
	</g>
</g>
</svg>
