<?xml version="1.0" encoding="utf-8"?>
<!-- Generator: Adobe Illustrator 28.1.0, SVG Export Plug-In . SVG Version: 6.00 Build 0)  -->
<svg version="1.1" id="Capa_1" xmlns="http://www.w3.org/2000/svg" xmlns:xlink="http://www.w3.org/1999/xlink" x="0px" y="0px"
	 viewBox="0 0 800 800" style="enable-background:new 0 0 800 800;" xml:space="preserve">
<style type="text/css">
	.st0{fill:#FFFFFF;}
</style>
<image style="display:none;overflow:visible;" width="82" height="65" xlink:href="FC31443A.jpg"  transform="matrix(10.3532 0 0 10.3532 -24.4792 74.1983)">
</image>
<g>
	<g>
		<path class="st0" d="M196.4,176.8c12.7,9.3,25.4,18.7,38.1,28c30.2,22.2,60.4,44.4,90.6,66.6c36.8,27,73.6,54.1,110.4,81.1
			c31.6,23.2,63.2,46.4,94.8,69.6c15.5,11.4,30.8,23,46.4,34.1c0.2,0.2,0.4,0.3,0.6,0.5c0-27.6,0-55.3,0-82.9
			c-12.7,9-25.3,17.9-38,26.9c-30.4,21.5-60.8,43-91.1,64.5c-36.6,25.9-73.2,51.8-109.8,77.7c-31.7,22.4-63.3,44.8-95,67.2
			c-15.5,11-31,21.8-46.4,32.9c-0.2,0.2-0.4,0.3-0.7,0.5c-10.4,7.4-18.6,16-22.1,28.7c-3.2,11.5-1.7,26.8,4.8,37
			c6.6,10.2,16.4,19.3,28.7,22.1c12,2.7,26.6,2.5,37-4.8c12.7-9,25.3-17.9,38-26.9c30.4-21.5,60.8-43,91.1-64.5
			c36.6-25.9,73.2-51.8,109.8-77.7c31.7-22.4,63.3-44.8,95-67.2c15.5-11,31-21.8,46.4-32.9c0.2-0.2,0.4-0.3,0.7-0.5
			c7.2-4.3,13-10,17.2-17.2c4.3-7.5,6.5-15.6,6.6-24.2c0-8.7-2.2-16.7-6.6-24.2c-4.3-7.2-10-13-17.2-17.2
			c-12.7-9.3-25.4-18.7-38.1-28c-30.2-22.2-60.4-44.4-90.6-66.6c-36.8-27-73.6-54.1-110.4-81.1c-31.6-23.2-63.2-46.4-94.8-69.6
			c-15.5-11.4-30.7-23.2-46.4-34.1c-0.2-0.2-0.4-0.3-0.6-0.5c-9.4-6.9-26.2-7.8-37-4.8c-11.1,3.1-23.2,11.7-28.7,22.1
			c-5.9,11.1-8.8,24.6-4.8,37c1.6,3.8,3.2,7.6,4.8,11.5C183.5,166.8,189.2,172.6,196.4,176.8L196.4,176.8z"/>
	</g>
</g>
</svg>
