<?xml version="1.0" encoding="UTF-8"?>
<svg id="Capa_1" data-name="Capa 1" xmlns="http://www.w3.org/2000/svg" viewBox="0 0 577.62 781.25">
  <defs>
    <style>
      .cls-1 {
        fill: #fff;
        stroke-width: 0px;
      }
    </style>
  </defs>
  <path class="cls-1" d="M29,107.92c15.38,11.26,30.76,22.64,46.13,33.9,36.57,26.88,73.13,53.76,109.7,80.64,44.56,32.69,89.12,65.51,133.68,98.2,38.26,28.09,76.52,56.18,114.79,84.27,18.77,13.8,37.29,27.85,56.18,41.29.24.24.48.36.73.61v-100.38c-15.38,10.9-30.63,21.67-46.01,32.57-36.81,26.03-73.62,52.07-110.31,78.1-44.32,31.36-88.63,62.72-132.95,94.08-38.38,27.12-76.65,54.25-115.03,81.37-18.77,13.32-37.54,26.4-56.18,39.84-.24.24-.48.36-.85.61-12.59,8.96-22.52,19.37-26.76,34.75-3.87,13.92-2.06,32.45,5.81,44.8,7.99,12.35,19.86,23.37,34.75,26.76,14.53,3.27,32.21,3.03,44.8-5.81,15.38-10.9,30.63-21.67,46.01-32.57,36.81-26.03,73.62-52.07,110.31-78.1,44.32-31.36,88.63-62.72,132.95-94.08,38.38-27.12,76.65-54.25,115.03-81.37,18.77-13.32,37.54-26.4,56.18-39.84.24-.24.48-.36.85-.61,8.72-5.21,15.74-12.11,20.83-20.83,5.21-9.08,7.87-18.89,7.99-29.3,0-10.53-2.66-20.22-7.99-29.3-5.21-8.72-12.11-15.74-20.83-20.83-15.38-11.26-30.76-22.64-46.13-33.9-36.57-26.88-73.13-53.76-109.7-80.64-44.56-32.69-89.12-65.51-133.68-98.2-38.26-28.09-76.52-56.18-114.79-84.27-18.77-13.8-37.17-28.09-56.18-41.29-.24-.24-.48-.36-.73-.61C76.22-.57,55.88-1.66,42.8,1.97c-13.44,3.75-28.09,14.17-34.75,26.76C.91,42.17-2.61,58.52,2.24,73.53c1.94,4.6,3.87,9.2,5.81,13.92,5.33,8.35,12.23,15.38,20.95,20.46h0Z"/>
</svg>